<svg fill="#FFFFFF" xmlns="http://www.w3.org/2000/svg"  viewBox="0 0 50 50" width="100px" height="100px"><path d="M 22.3125 10 C 25.148438 11.992188 27 15.28125 27 19 L 27 36 L 47 36 C 47.554688 36 48 35.554688 48 35 L 48 19 C 48 14.039063 43.964844 10 39 10 Z M 16.5 10.03125 C 11.769531 10.292969 8 14.207031 8 19 L 8 35 C 8 35.554688 8.449219 36 9 36 L 25 36 L 25 19 C 25 14.207031 21.230469 10.292969 16.5 10.03125 Z M 33 17 C 33.738281 17 34.371094 17.40625 34.71875 18 L 44 18 L 44 24 L 40 24 L 40 20 L 34.71875 20 C 34.371094 20.59375 33.738281 21 33 21 C 31.894531 21 31 20.105469 31 19 C 31 17.894531 31.894531 17 33 17 Z M 14 20 L 19 20 C 19.550781 20 20 20.449219 20 21 C 20 21.550781 19.550781 22 19 22 L 14 22 C 13.449219 22 13 21.550781 13 21 C 13 20.449219 13.449219 20 14 20 Z M 28 38 L 28 46 L 34 46 L 34 38 Z"/></svg>