<?xml version="1.0" encoding="us-ascii" standalone="no"?><svg xmlns="http://www.w3.org/2000/svg" xmlns:xlink="http://www.w3.org/1999/xlink" contentStyleType="text/css" height="789px" preserveAspectRatio="none" style="width:1671px;height:789px;background:#FFFFFF;" version="1.1" viewBox="0 0 1671 789" width="1671px" zoomAndPan="magnify"><defs/><g><rect fill="#C8C8FA" height="770.1016" style="stroke:#181818;stroke-width:0.5;" width="1099" x="200" y="6"/><text fill="#FFFFFF" font-family="sans-serif" font-size="13" font-weight="bold" lengthAdjust="spacing" textLength="35" x="730" y="20.0283">Logic</text><rect fill="#F97181" height="770.1016" style="stroke:#181818;stroke-width:0.5;" width="95" x="1570.5" y="6"/><text fill="#FFFFFF" font-family="sans-serif" font-size="13" font-weight="bold" lengthAdjust="spacing" textLength="39" x="1596.5" y="20.0283">Model</text><rect fill="#FFFFFF" height="678.8984" style="stroke:#181818;stroke-width:1.0;" width="10" x="263" y="94.2031"/><rect fill="#FFFFFF" height="351.5703" style="stroke:#181818;stroke-width:1.0;" width="10" x="581" y="125.4941"/><rect fill="#FFFFFF" height="33.6211" style="stroke:#181818;stroke-width:1.0;" width="10" x="840" y="149.4941"/><rect fill="#FFFFFF" height="231.3672" style="stroke:#181818;stroke-width:1.0;" width="10" x="840" y="214.4063"/><rect fill="#FFFFFF" height="31.291" style="stroke:#181818;stroke-width:1.0;" width="10" x="1073" y="245.6973"/><rect fill="#FFFFFF" height="31.291" style="stroke:#181818;stroke-width:1.0;" width="10" x="1073" y="308.2793"/><rect fill="#FFFFFF" height="33.6211" style="stroke:#181818;stroke-width:1.0;" width="10" x="1210" y="380.8613"/><rect fill="#FFFFFF" height="255.7461" style="stroke:#181818;stroke-width:1.0;" width="10" x="1210" y="508.3555"/><rect fill="#FFFFFF" height="42.291" style="stroke:#181818;stroke-width:1.0;" width="10" x="1215" y="592.9375"/><rect fill="#FFFFFF" height="14" style="stroke:#181818;stroke-width:1.0;" width="10" x="1613" y="539.6465"/><rect fill="#FFFFFF" height="14" style="stroke:#181818;stroke-width:1.0;" width="10" x="1613" y="673.5195"/><rect fill="#FFFFFF" height="14" style="stroke:#181818;stroke-width:1.0;" width="10" x="1613" y="718.8105"/><line style="stroke:#181818;stroke-width:0.5;stroke-dasharray:5.0,5.0;" x1="268" x2="268" y1="60.9121" y2="782.1016"/><line style="stroke:#181818;stroke-width:0.5;stroke-dasharray:5.0,5.0;" x1="586" x2="586" y1="60.9121" y2="782.1016"/><line style="stroke:#181818;stroke-width:0.5;stroke-dasharray:5.0,5.0;" x1="845" x2="845" y1="165.3047" y2="782.1016"/><line style="stroke:#181818;stroke-width:0.5;stroke-dasharray:5.0,5.0;" x1="1078" x2="1078" y1="60.9121" y2="782.1016"/><line style="stroke:#181818;stroke-width:0.5;stroke-dasharray:5.0,5.0;" x1="1215" x2="1215" y1="379.3809" y2="782.1016"/><line style="stroke:#181818;stroke-width:0.5;stroke-dasharray:5.0,5.0;" x1="1617.5" x2="1617.5" y1="60.9121" y2="782.1016"/><rect fill="#3333C4" height="32.6211" rx="2.5" ry="2.5" style="stroke:#181818;stroke-width:0.5;" width="108" x="214" y="27.291"/><text fill="#FFFFFF" font-family="sans-serif" font-size="14" lengthAdjust="spacing" textLength="94" x="221" y="49.3984">:LogicManager</text><rect fill="#3333C4" height="32.6211" rx="2.5" ry="2.5" style="stroke:#181818;stroke-width:0.5;" width="144" x="514" y="27.291"/><text fill="#FFFFFF" font-family="sans-serif" font-size="14" lengthAdjust="spacing" textLength="130" x="521" y="49.3984">:AddressBookParser</text><rect fill="#3333C4" height="32.6211" rx="2.5" ry="2.5" style="stroke:#181818;stroke-width:0.5;" width="74" x="1041" y="27.291"/><text fill="#FFFFFF" font-family="sans-serif" font-size="14" lengthAdjust="spacing" textLength="60" x="1048" y="49.3984">:ParseUtil</text><rect fill="#9D0012" height="32.6211" rx="2.5" ry="2.5" style="stroke:#181818;stroke-width:0.5;" width="67" x="1584.5" y="27.291"/><text fill="#FFFFFF" font-family="sans-serif" font-size="14" lengthAdjust="spacing" textLength="53" x="1591.5" y="49.3984">m:Model</text><rect fill="#FFFFFF" height="678.8984" style="stroke:#181818;stroke-width:1.0;" width="10" x="263" y="94.2031"/><rect fill="#FFFFFF" height="351.5703" style="stroke:#181818;stroke-width:1.0;" width="10" x="581" y="125.4941"/><rect fill="#FFFFFF" height="33.6211" style="stroke:#181818;stroke-width:1.0;" width="10" x="840" y="149.4941"/><rect fill="#FFFFFF" height="231.3672" style="stroke:#181818;stroke-width:1.0;" width="10" x="840" y="214.4063"/><rect fill="#FFFFFF" height="31.291" style="stroke:#181818;stroke-width:1.0;" width="10" x="1073" y="245.6973"/><rect fill="#FFFFFF" height="31.291" style="stroke:#181818;stroke-width:1.0;" width="10" x="1073" y="308.2793"/><rect fill="#FFFFFF" height="33.6211" style="stroke:#181818;stroke-width:1.0;" width="10" x="1210" y="380.8613"/><rect fill="#FFFFFF" height="255.7461" style="stroke:#181818;stroke-width:1.0;" width="10" x="1210" y="508.3555"/><rect fill="#FFFFFF" height="42.291" style="stroke:#181818;stroke-width:1.0;" width="10" x="1215" y="592.9375"/><rect fill="#FFFFFF" height="14" style="stroke:#181818;stroke-width:1.0;" width="10" x="1613" y="539.6465"/><rect fill="#FFFFFF" height="14" style="stroke:#181818;stroke-width:1.0;" width="10" x="1613" y="673.5195"/><rect fill="#FFFFFF" height="14" style="stroke:#181818;stroke-width:1.0;" width="10" x="1613" y="718.8105"/><polygon fill="#181818" points="251,90.2031,261,94.2031,251,98.2031,255,94.2031" style="stroke:#181818;stroke-width:1.0;"/><line style="stroke:#181818;stroke-width:1.0;" x1="0" x2="257" y1="94.2031" y2="94.2031"/><text fill="#000000" font-family="sans-serif" font-size="13" lengthAdjust="spacing" textLength="244" x="9.5" y="88.9404">execute("addtag 1 t/validTag1 t/validTag2")</text><polygon fill="#181818" points="569,121.4941,579,125.4941,569,129.4941,573,125.4941" style="stroke:#181818;stroke-width:1.0;"/><line style="stroke:#181818;stroke-width:1.0;" x1="273" x2="575" y1="125.4941" y2="125.4941"/><text fill="#000000" font-family="sans-serif" font-size="13" lengthAdjust="spacing" textLength="289" x="282.5" y="120.2314">parseCommand("addtag 1 t/validTag1 t/validTag2")</text><polygon fill="#181818" points="746,135.4941,756,139.4941,746,143.4941,750,139.4941" style="stroke:#181818;stroke-width:1.0;"/><line style="stroke:#181818;stroke-width:1.0;" x1="591" x2="752" y1="139.4941" y2="139.4941"/><rect fill="#3333C4" height="32.6211" rx="2.5" ry="2.5" style="stroke:#181818;stroke-width:0.5;" width="174" x="758" y="133.4941"/><text fill="#FFFFFF" font-family="sans-serif" font-size="14" lengthAdjust="spacing" textLength="160" x="765" y="155.6016">:AddTagCommandParser</text><polygon fill="#181818" points="602,179.1152,592,183.1152,602,187.1152,598,183.1152" style="stroke:#181818;stroke-width:1.0;"/><line style="stroke:#181818;stroke-width:1.0;stroke-dasharray:2.0,2.0;" x1="596" x2="844" y1="183.1152" y2="183.1152"/><polygon fill="#181818" points="828,210.4063,838,214.4063,828,218.4063,832,214.4063" style="stroke:#181818;stroke-width:1.0;"/><line style="stroke:#181818;stroke-width:1.0;" x1="591" x2="834" y1="214.4063" y2="214.4063"/><text fill="#000000" font-family="sans-serif" font-size="13" lengthAdjust="spacing" textLength="230" x="600.5" y="209.1436">parse("addtag 1 t/validTag1 t/validTag2")</text><polygon fill="#181818" points="1061,241.6973,1071,245.6973,1061,249.6973,1065,245.6973" style="stroke:#181818;stroke-width:1.0;"/><line style="stroke:#181818;stroke-width:1.0;" x1="850" x2="1067" y1="245.6973" y2="245.6973"/><text fill="#000000" font-family="sans-serif" font-size="13" lengthAdjust="spacing" textLength="88" x="917.5" y="240.4346">parseIndex("1")</text><polygon fill="#181818" points="861,272.9883,851,276.9883,861,280.9883,857,276.9883" style="stroke:#181818;stroke-width:1.0;"/><line style="stroke:#181818;stroke-width:1.0;stroke-dasharray:2.0,2.0;" x1="855" x2="1077" y1="276.9883" y2="276.9883"/><text fill="#000000" font-family="sans-serif" font-size="13" lengthAdjust="spacing" textLength="31" x="948.5" y="271.7256">index</text><polygon fill="#181818" points="1061,304.2793,1071,308.2793,1061,312.2793,1065,308.2793" style="stroke:#181818;stroke-width:1.0;"/><line style="stroke:#181818;stroke-width:1.0;" x1="850" x2="1067" y1="308.2793" y2="308.2793"/><text fill="#000000" font-family="sans-serif" font-size="13" lengthAdjust="spacing" textLength="204" x="859.5" y="303.0166">parseTags("t/validTag1 t/validTag2")</text><polygon fill="#181818" points="861,335.5703,851,339.5703,861,343.5703,857,339.5703" style="stroke:#181818;stroke-width:1.0;"/><line style="stroke:#181818;stroke-width:1.0;stroke-dasharray:2.0,2.0;" x1="855" x2="1077" y1="339.5703" y2="339.5703"/><text fill="#000000" font-family="sans-serif" font-size="13" lengthAdjust="spacing" textLength="38" x="945" y="334.3076">tagSet</text><polygon fill="#181818" points="1133,366.8613,1143,370.8613,1133,374.8613,1137,370.8613" style="stroke:#181818;stroke-width:1.0;"/><line style="stroke:#181818;stroke-width:1.0;" x1="850" x2="1139" y1="370.8613" y2="370.8613"/><text fill="#000000" font-family="sans-serif" font-size="13" lengthAdjust="spacing" textLength="186" x="904.5" y="365.5986">addTagCommand(index, tagSet)</text><rect fill="#3333C4" height="32.6211" rx="2.5" ry="2.5" style="stroke:#181818;stroke-width:0.5;" width="140" x="1145" y="347.5703"/><text fill="#FFFFFF" font-family="sans-serif" font-size="14" lengthAdjust="spacing" textLength="126" x="1152" y="369.6777">a:AddTagCommand</text><polygon fill="#181818" points="861,410.4824,851,414.4824,861,418.4824,857,414.4824" style="stroke:#181818;stroke-width:1.0;"/><line style="stroke:#181818;stroke-width:1.0;stroke-dasharray:2.0,2.0;" x1="855" x2="1214" y1="414.4824" y2="414.4824"/><text fill="#000000" font-family="sans-serif" font-size="13" lengthAdjust="spacing" textLength="7" x="1029" y="409.2197">a</text><polygon fill="#181818" points="602,441.7734,592,445.7734,602,449.7734,598,445.7734" style="stroke:#181818;stroke-width:1.0;"/><line style="stroke:#181818;stroke-width:1.0;stroke-dasharray:2.0,2.0;" x1="596" x2="844" y1="445.7734" y2="445.7734"/><text fill="#000000" font-family="sans-serif" font-size="13" lengthAdjust="spacing" textLength="7" x="714.5" y="440.5107">a</text><polygon fill="#181818" points="284,473.0645,274,477.0645,284,481.0645,280,477.0645" style="stroke:#181818;stroke-width:1.0;"/><line style="stroke:#181818;stroke-width:1.0;stroke-dasharray:2.0,2.0;" x1="278" x2="585" y1="477.0645" y2="477.0645"/><text fill="#000000" font-family="sans-serif" font-size="13" lengthAdjust="spacing" textLength="7" x="426" y="471.8018">a</text><line style="stroke:#A80036;stroke-width:2.0;" x1="836" x2="854" y1="468.0645" y2="486.0645"/><line style="stroke:#A80036;stroke-width:2.0;" x1="836" x2="854" y1="486.0645" y2="468.0645"/><polygon fill="#181818" points="1198,504.3555,1208,508.3555,1198,512.3555,1202,508.3555" style="stroke:#181818;stroke-width:1.0;"/><line style="stroke:#181818;stroke-width:1.0;" x1="273" x2="1204" y1="508.3555" y2="508.3555"/><text fill="#000000" font-family="sans-serif" font-size="13" lengthAdjust="spacing" textLength="65" x="709" y="503.0928">execute(m)</text><polygon fill="#181818" points="1601,535.6465,1611,539.6465,1601,543.6465,1605,539.6465" style="stroke:#181818;stroke-width:1.0;"/><line style="stroke:#181818;stroke-width:1.0;" x1="1220" x2="1607" y1="539.6465" y2="539.6465"/><text fill="#000000" font-family="sans-serif" font-size="13" lengthAdjust="spacing" textLength="131" x="1351" y="534.3838">getFilteredPersonList()</text><polygon fill="#181818" points="1231,549.6465,1221,553.6465,1231,557.6465,1227,553.6465" style="stroke:#181818;stroke-width:1.0;"/><line style="stroke:#181818;stroke-width:1.0;stroke-dasharray:2.0,2.0;" x1="1225" x2="1617" y1="553.6465" y2="553.6465"/><line style="stroke:#181818;stroke-width:1.0;" x1="1220" x2="1267" y1="579.9375" y2="579.9375"/><line style="stroke:#181818;stroke-width:1.0;" x1="1267" x2="1267" y1="579.9375" y2="592.9375"/><line style="stroke:#181818;stroke-width:1.0;" x1="1226" x2="1267" y1="592.9375" y2="592.9375"/><polygon fill="#181818" points="1236,588.9375,1226,592.9375,1236,596.9375,1232,592.9375" style="stroke:#181818;stroke-width:1.0;"/><text fill="#000000" font-family="sans-serif" font-size="13" lengthAdjust="spacing" textLength="287" x="1232" y="574.6748">addTagsToPerson(personFilteredByIndex, tagSet)</text><line style="stroke:#181818;stroke-width:1.0;stroke-dasharray:2.0,2.0;" x1="1225" x2="1267" y1="634.2285" y2="634.2285"/><line style="stroke:#181818;stroke-width:1.0;stroke-dasharray:2.0,2.0;" x1="1267" x2="1267" y1="634.2285" y2="647.2285"/><line style="stroke:#181818;stroke-width:1.0;stroke-dasharray:2.0,2.0;" x1="1220" x2="1267" y1="647.2285" y2="647.2285"/><polygon fill="#181818" points="1230,643.2285,1220,647.2285,1230,651.2285,1226,647.2285" style="stroke:#181818;stroke-width:1.0;"/><text fill="#000000" font-family="sans-serif" font-size="13" lengthAdjust="spacing" textLength="131" x="1232" y="628.9658">personWithAddedTags</text><polygon fill="#181818" points="1601,669.5195,1611,673.5195,1601,677.5195,1605,673.5195" style="stroke:#181818;stroke-width:1.0;"/><line style="stroke:#181818;stroke-width:1.0;" x1="1220" x2="1607" y1="673.5195" y2="673.5195"/><text fill="#000000" font-family="sans-serif" font-size="13" lengthAdjust="spacing" textLength="335" x="1249" y="668.2568">setPerson(personFilteredByIndex, personWithAddedTags)</text><polygon fill="#181818" points="1231,683.5195,1221,687.5195,1231,691.5195,1227,687.5195" style="stroke:#181818;stroke-width:1.0;"/><line style="stroke:#181818;stroke-width:1.0;stroke-dasharray:2.0,2.0;" x1="1225" x2="1617" y1="687.5195" y2="687.5195"/><polygon fill="#181818" points="1601,714.8105,1611,718.8105,1601,722.8105,1605,718.8105" style="stroke:#181818;stroke-width:1.0;"/><line style="stroke:#181818;stroke-width:1.0;" x1="1220" x2="1607" y1="718.8105" y2="718.8105"/><text fill="#000000" font-family="sans-serif" font-size="13" lengthAdjust="spacing" textLength="374" x="1229.5" y="713.5479">updateFilteredPersonList(PREDICATE_SHOW_ALL_PERSONS)</text><polygon fill="#181818" points="1231,728.8105,1221,732.8105,1231,736.8105,1227,732.8105" style="stroke:#181818;stroke-width:1.0;"/><line style="stroke:#181818;stroke-width:1.0;stroke-dasharray:2.0,2.0;" x1="1225" x2="1617" y1="732.8105" y2="732.8105"/><polygon fill="#181818" points="284,760.1016,274,764.1016,284,768.1016,280,764.1016" style="stroke:#181818;stroke-width:1.0;"/><line style="stroke:#181818;stroke-width:1.0;stroke-dasharray:2.0,2.0;" x1="278" x2="1214" y1="764.1016" y2="764.1016"/><text fill="#000000" font-family="sans-serif" font-size="13" lengthAdjust="spacing" textLength="204" x="642" y="758.8389">commandResult(successMessage)</text><!--SRC=[hLH1Rvim6BtxLtYSgBHqoeuS8gLfkaKY8qfIzR03Sl4dPXKmmgPB_lsC8Qt1m8YKGnJmzxxtdfy__8LbKL9Im4AU4xZFopH1uerbEIb8YfT5mVy-yKmUgYhE4y8oX5xv2ViyPX7sWn-RLRWA_60V7kT8DKaMiPna4ZkUXcn9Hc8e74m4DXVCraxVaj82X7ZW_6r72j4qMwlZ34SIhtYQaeosERhh8omQy2nPedi_teOxI5lObcorWdfNITPnRZc516-3nxK_46VgQOmcjT2VPBzdYtRE7eOJHAK4ro6KIXBZEPRVtad2AcFcytVd3f58idSYeSM1K8jHATY7uU6yUcWsUfsMnOPGL41JwHuOihLhGnRGvBUAg6yMPdrRGnJ-opJ9q2MZgyEPQ7vXp6WZjSaed5ndRX9-W13wnCy6BREAmip0w9zgGu64wqpOx9NUL8W7a0Fc-aPeo77xA_KmCTzT7S7NHcteQ3ffZBWcWnDrnLIEyenCfdqzT6ciwHUouET-WPvxePNZvUf9XrFhnhPeRZSFno2VM2AX0Bg3Gl3CPqAw1fC68bJZhRpDRJL8Iwh_tCMHru9khlykBXxEcvjCGlLPQE8N9l-e2cZHgLDXHYH0ZZljqRbfW7hTmsLE5Qhdj7RxzUDcjJokmyFFu2LS-dwuM-yFmQ_33MrqPjh3KLtPWoWJwOeoYjHCRzLFbUy6S_u7]--></g></svg>