<?xml version="1.0" encoding="us-ascii" standalone="no"?><svg xmlns="http://www.w3.org/2000/svg" xmlns:xlink="http://www.w3.org/1999/xlink" contentStyleType="text/css" height="592px" preserveAspectRatio="none" style="width:1153px;height:592px;background:#FFFFFF;" version="1.1" viewBox="0 0 1153 592" width="1153px" zoomAndPan="magnify"><defs/><g><rect fill="#C8C8FA" height="573.3164" style="stroke:#181818;stroke-width:0.5;" width="910.5" x="128" y="6"/><text fill="#FFFFFF" font-family="sans-serif" font-size="13" font-weight="bold" lengthAdjust="spacing" textLength="35" x="563.75" y="20.0283">Logic</text><rect fill="#F97181" height="573.3164" style="stroke:#181818;stroke-width:0.5;" width="100" x="1040.5" y="6"/><text fill="#FFFFFF" font-family="sans-serif" font-size="13" font-weight="bold" lengthAdjust="spacing" textLength="39" x="1069" y="20.0283">Model</text><rect fill="#FFFFFF" height="482.1133" style="stroke:#181818;stroke-width:1.0;" width="10" x="191" y="94.2031"/><rect fill="#FFFFFF" height="441.8223" style="stroke:#181818;stroke-width:1.0;" width="10" x="437" y="125.4941"/><rect fill="#FFFFFF" height="33.6211" style="stroke:#181818;stroke-width:1.0;" width="10" x="625.5" y="149.4941"/><rect fill="#FFFFFF" height="307.6191" style="stroke:#181818;stroke-width:1.0;" width="10" x="625.5" y="214.4063"/><rect fill="#FFFFFF" height="163.125" style="stroke:#181818;stroke-width:1.0;" width="10" x="779" y="245.6973"/><rect fill="#FFFFFF" height="33.6211" style="stroke:#181818;stroke-width:1.0;" width="10" x="950.5" y="457.1133"/><rect fill="#FFFFFF" height="16.3301" style="stroke:#181818;stroke-width:1.0;" width="10" x="1085.5" y="313.2793"/><rect fill="#FFFFFF" height="156.125" style="stroke:#000000;stroke-width:1.5;" width="622.5" x="524" y="260.6973"/><rect fill="#FFFFFF" height="47.9219" style="stroke:none;stroke-width:1.0;" width="622.5" x="524" y="368.9004"/><line style="stroke:#181818;stroke-width:0.5;stroke-dasharray:5.0,5.0;" x1="196" x2="196" y1="60.9121" y2="585.3164"/><line style="stroke:#181818;stroke-width:0.5;stroke-dasharray:5.0,5.0;" x1="442" x2="442" y1="60.9121" y2="585.3164"/><line style="stroke:#181818;stroke-width:0.5;stroke-dasharray:5.0,5.0;" x1="630" x2="630" y1="165.3047" y2="585.3164"/><line style="stroke:#181818;stroke-width:0.5;stroke-dasharray:5.0,5.0;" x1="784" x2="784" y1="60.9121" y2="585.3164"/><line style="stroke:#181818;stroke-width:0.5;stroke-dasharray:5.0,5.0;" x1="955.5" x2="955.5" y1="455.6328" y2="585.3164"/><line style="stroke:#181818;stroke-width:0.5;stroke-dasharray:5.0,5.0;" x1="1090.5" x2="1090.5" y1="311.7988" y2="585.3164"/><rect fill="#3333C4" height="32.6211" rx="2.5" ry="2.5" style="stroke:#181818;stroke-width:0.5;" width="108" x="142" y="27.291"/><text fill="#FFFFFF" font-family="sans-serif" font-size="14" lengthAdjust="spacing" textLength="94" x="149" y="49.3984">:LogicManager</text><rect fill="#3333C4" height="32.6211" rx="2.5" ry="2.5" style="stroke:#181818;stroke-width:0.5;" width="144" x="370" y="27.291"/><text fill="#FFFFFF" font-family="sans-serif" font-size="14" lengthAdjust="spacing" textLength="130" x="377" y="49.3984">:AddressBookParser</text><rect fill="#3333C4" height="32.6211" rx="2.5" ry="2.5" style="stroke:#181818;stroke-width:0.5;" width="74" x="747" y="27.291"/><text fill="#FFFFFF" font-family="sans-serif" font-size="14" lengthAdjust="spacing" textLength="60" x="754" y="49.3984">:ParseUtil</text><rect fill="#FFFFFF" height="482.1133" style="stroke:#181818;stroke-width:1.0;" width="10" x="191" y="94.2031"/><rect fill="#FFFFFF" height="441.8223" style="stroke:#181818;stroke-width:1.0;" width="10" x="437" y="125.4941"/><rect fill="#FFFFFF" height="33.6211" style="stroke:#181818;stroke-width:1.0;" width="10" x="625.5" y="149.4941"/><rect fill="#FFFFFF" height="307.6191" style="stroke:#181818;stroke-width:1.0;" width="10" x="625.5" y="214.4063"/><rect fill="#FFFFFF" height="163.125" style="stroke:#181818;stroke-width:1.0;" width="10" x="779" y="245.6973"/><rect fill="#FFFFFF" height="33.6211" style="stroke:#181818;stroke-width:1.0;" width="10" x="950.5" y="457.1133"/><rect fill="#FFFFFF" height="16.3301" style="stroke:#181818;stroke-width:1.0;" width="10" x="1085.5" y="313.2793"/><polygon fill="#181818" points="179,90.2031,189,94.2031,179,98.2031,183,94.2031" style="stroke:#181818;stroke-width:1.0;"/><line style="stroke:#181818;stroke-width:1.0;" x1="0" x2="185" y1="94.2031" y2="94.2031"/><text fill="#000000" font-family="sans-serif" font-size="13" lengthAdjust="spacing" textLength="172" x="9.5" y="88.9404">execute("remark 1 r/" + value)</text><polygon fill="#181818" points="425,121.4941,435,125.4941,425,129.4941,429,125.4941" style="stroke:#181818;stroke-width:1.0;"/><line style="stroke:#181818;stroke-width:1.0;" x1="201" x2="431" y1="125.4941" y2="125.4941"/><text fill="#000000" font-family="sans-serif" font-size="13" lengthAdjust="spacing" textLength="217" x="210.5" y="120.2314">parseCommand("remark 1 r/" + value)</text><polygon fill="#181818" points="532,135.4941,542,139.4941,532,143.4941,536,139.4941" style="stroke:#181818;stroke-width:1.0;"/><line style="stroke:#181818;stroke-width:1.0;" x1="447" x2="538" y1="139.4941" y2="139.4941"/><rect fill="#3333C4" height="32.6211" rx="2.5" ry="2.5" style="stroke:#181818;stroke-width:0.5;" width="173" x="544" y="133.4941"/><text fill="#FFFFFF" font-family="sans-serif" font-size="14" lengthAdjust="spacing" textLength="159" x="551" y="155.6016">:RemarkCommandParser</text><polygon fill="#181818" points="458,179.1152,448,183.1152,458,187.1152,454,183.1152" style="stroke:#181818;stroke-width:1.0;"/><line style="stroke:#181818;stroke-width:1.0;stroke-dasharray:2.0,2.0;" x1="452" x2="629.5" y1="183.1152" y2="183.1152"/><polygon fill="#181818" points="613.5,210.4063,623.5,214.4063,613.5,218.4063,617.5,214.4063" style="stroke:#181818;stroke-width:1.0;"/><line style="stroke:#181818;stroke-width:1.0;" x1="447" x2="619.5" y1="214.4063" y2="214.4063"/><text fill="#000000" font-family="sans-serif" font-size="13" lengthAdjust="spacing" textLength="114" x="479.25" y="209.1436">parse("1 r/" + value)</text><polygon fill="#181818" points="767,241.6973,777,245.6973,767,249.6973,771,245.6973" style="stroke:#181818;stroke-width:1.0;"/><line style="stroke:#181818;stroke-width:1.0;" x1="635.5" x2="773" y1="245.6973" y2="245.6973"/><text fill="#000000" font-family="sans-serif" font-size="13" lengthAdjust="spacing" textLength="114" x="650.25" y="240.4346">parseRemark(value)</text><path d="M524,260.6973 L585,260.6973 L585,269.9883 L575,279.9883 L524,279.9883 L524,260.6973 " fill="#EEEEEE" style="stroke:#000000;stroke-width:1.5;"/><rect fill="none" height="156.125" style="stroke:#000000;stroke-width:1.5;" width="622.5" x="524" y="260.6973"/><text fill="#000000" font-family="sans-serif" font-size="13" font-weight="bold" lengthAdjust="spacing" textLength="16" x="539" y="275.7256">alt</text><text fill="#000000" font-family="sans-serif" font-size="11" font-weight="bold" lengthAdjust="spacing" textLength="104" x="600" y="274.5674">[value is not blank]</text><polygon fill="#181818" points="1042.5,299.2793,1052.5,303.2793,1042.5,307.2793,1046.5,303.2793" style="stroke:#181818;stroke-width:1.0;"/><line style="stroke:#181818;stroke-width:1.0;" x1="789" x2="1048.5" y1="303.2793" y2="303.2793"/><text fill="#000000" font-family="sans-serif" font-size="13" lengthAdjust="spacing" textLength="109" x="867.25" y="298.0166">new Remark(value)</text><rect fill="#9D0012" height="32.6211" rx="2.5" ry="2.5" style="stroke:#181818;stroke-width:0.5;" width="72" x="1054.5" y="279.9883"/><text fill="#FFFFFF" font-family="sans-serif" font-size="14" lengthAdjust="spacing" textLength="58" x="1061.5" y="302.0957">r:Remark</text><polygon fill="#181818" points="800,325.6094,790,329.6094,800,333.6094,796,329.6094" style="stroke:#181818;stroke-width:1.0;"/><line style="stroke:#181818;stroke-width:1.0;stroke-dasharray:2.0,2.0;" x1="794" x2="1089.5" y1="329.6094" y2="329.6094"/><polygon fill="#181818" points="646.5,356.9004,636.5,360.9004,646.5,364.9004,642.5,360.9004" style="stroke:#181818;stroke-width:1.0;"/><line style="stroke:#181818;stroke-width:1.0;stroke-dasharray:2.0,2.0;" x1="640.5" x2="778" y1="360.9004" y2="360.9004"/><text fill="#000000" font-family="sans-serif" font-size="13" lengthAdjust="spacing" textLength="74" x="670.25" y="355.6377">Optional.of(r)</text><line style="stroke:#000000;stroke-width:1.0;stroke-dasharray:2.0,2.0;" x1="524" x2="1146.5" y1="369.9004" y2="369.9004"/><text fill="#000000" font-family="sans-serif" font-size="11" font-weight="bold" lengthAdjust="spacing" textLength="83" x="529" y="381.7705">[value is blank]</text><polygon fill="#181818" points="646.5,404.8223,636.5,408.8223,646.5,412.8223,642.5,408.8223" style="stroke:#181818;stroke-width:1.0;"/><line style="stroke:#181818;stroke-width:1.0;stroke-dasharray:2.0,2.0;" x1="640.5" x2="783" y1="408.8223" y2="408.8223"/><text fill="#000000" font-family="sans-serif" font-size="13" lengthAdjust="spacing" textLength="98" x="660.75" y="403.5596">Optional.Empty()</text><polygon fill="#181818" points="874.5,443.1133,884.5,447.1133,874.5,451.1133,878.5,447.1133" style="stroke:#181818;stroke-width:1.0;"/><line style="stroke:#181818;stroke-width:1.0;" x1="635.5" x2="880.5" y1="447.1133" y2="447.1133"/><text fill="#000000" font-family="sans-serif" font-size="13" lengthAdjust="spacing" textLength="217" x="652.5" y="441.8506">RemarkCommand(1, optionalRemark)</text><rect fill="#3333C4" height="32.6211" rx="2.5" ry="2.5" style="stroke:#181818;stroke-width:0.5;" width="138" x="886.5" y="423.8223"/><text fill="#FFFFFF" font-family="sans-serif" font-size="14" lengthAdjust="spacing" textLength="124" x="893.5" y="445.9297">c:RemarkCommand</text><polygon fill="#181818" points="646.5,486.7344,636.5,490.7344,646.5,494.7344,642.5,490.7344" style="stroke:#181818;stroke-width:1.0;"/><line style="stroke:#181818;stroke-width:1.0;stroke-dasharray:2.0,2.0;" x1="640.5" x2="954.5" y1="490.7344" y2="490.7344"/><text fill="#000000" font-family="sans-serif" font-size="13" lengthAdjust="spacing" textLength="7" x="792" y="485.4717">c</text><polygon fill="#181818" points="458,518.0254,448,522.0254,458,526.0254,454,522.0254" style="stroke:#181818;stroke-width:1.0;"/><line style="stroke:#181818;stroke-width:1.0;stroke-dasharray:2.0,2.0;" x1="452" x2="629.5" y1="522.0254" y2="522.0254"/><text fill="#000000" font-family="sans-serif" font-size="13" lengthAdjust="spacing" textLength="7" x="535.25" y="516.7627">c</text><line style="stroke:#A80036;stroke-width:2.0;" x1="621.5" x2="639.5" y1="527.0254" y2="545.0254"/><line style="stroke:#A80036;stroke-width:2.0;" x1="621.5" x2="639.5" y1="545.0254" y2="527.0254"/><polygon fill="#181818" points="212,563.3164,202,567.3164,212,571.3164,208,567.3164" style="stroke:#181818;stroke-width:1.0;"/><line style="stroke:#181818;stroke-width:1.0;stroke-dasharray:2.0,2.0;" x1="206" x2="441" y1="567.3164" y2="567.3164"/><text fill="#000000" font-family="sans-serif" font-size="13" lengthAdjust="spacing" textLength="7" x="318" y="562.0537">c</text><!--SRC=[bPJVJy8m4CVVxwyuzpIYQ7ZbWKGHZGbanXzFn92wdThGjKjRGFvx1vjiPUj4dcXxtyzTltVT6PUnM2M4ncu5NMQhL81PSfanpLAyrbfjxfIqpxjJp0JZ4k1TVUDKVV8Ofz7zmtWnZgRHq-9b0Bd8yfXdJ5eCXlkG6PFiatI0p61zeouzqbqdYIPZRfHQFZ9jId5ZjuFmH2dJox5AKoQJ6gDbluEo3tYrNEorXvLV4Rk9coaTAUNhtCd2pfbAIE0ikfrCFNRg4bwZrkChtBm_SfqU8drJlB8K1hhG3L1V1NYEQoPMr0CMMxvcbXmPW0F9eSqE337R_IblzoU-0G28DUrEMXe3pNHv3Ms11txR8RJrlDzs6qYectHgGR-sX87FYDCB7TNchiGMSU4nyn07m8GjKY8tA9N5Ty7aqlKQAkxX5da6IHlq92XrPPrx3wkS3U_gVAzDKMQvaanSgezGzm186AegBwh6_FSlrYJDx3RirKkgwinVIVlG-Untt-_GNOU32rHbtkB0r-IZzdRS8_REuJzckPFJEN3pBvua9DyyByHOhROdFu_cbyYfgg7u0G00]--></g></svg>
